G04 EAGLE Gerber RS-274X export*
G75*
%MOMM*%
%FSLAX34Y34*%
%LPD*%
%INTop Copper*%
%IPPOS*%
%AMOC8*
5,1,8,0,0,1.08239X$1,22.5*%
G01*
%ADD10P,1.924489X8X22.500000*%
%ADD11R,6.200000X5.400000*%
%ADD12R,1.600000X1.000000*%
%ADD13R,1.120000X1.800000*%
%ADD14R,1.800000X1.120000*%
%ADD15C,1.320800*%
%ADD16R,1.500000X1.500000*%
%ADD17R,1.000000X3.400000*%
%ADD18R,6.800000X9.600000*%
%ADD19R,1.600000X0.800000*%
%ADD20R,0.800000X1.600000*%
%ADD21R,0.600000X2.200000*%
%ADD22R,1.000000X2.000000*%
%ADD23R,0.550000X1.200000*%
%ADD24C,1.508000*%
%ADD25C,2.650000*%
%ADD26C,1.800000*%
%ADD27R,0.279400X1.270000*%
%ADD28R,2.500000X1.600000*%
%ADD29R,2.540000X1.651000*%
%ADD30R,0.100000X1.700000*%
%ADD31R,2.700000X0.100000*%
%ADD32R,2.600000X0.100000*%
%ADD33R,0.100000X1.800000*%
%ADD34R,2.800000X1.800000*%
%ADD35R,2.300000X0.900000*%
%ADD36C,0.756400*%
%ADD37C,0.609600*%
%ADD38C,0.812800*%
%ADD39C,0.508000*%
%ADD40C,0.254000*%
%ADD41C,1.016000*%
%ADD42C,0.203200*%
%ADD43C,0.406400*%
%ADD44C,0.200000*%
%ADD45C,0.254000*%


D10*
X520700Y711200D03*
X546100Y711200D03*
X571500Y711200D03*
X596900Y711200D03*
X622300Y711200D03*
X647700Y711200D03*
X480000Y711200D03*
X454600Y711200D03*
X429200Y711200D03*
X403800Y711200D03*
X378400Y711200D03*
X353000Y711200D03*
X327600Y711200D03*
X302200Y711200D03*
X276800Y711200D03*
X251400Y711200D03*
X673100Y711200D03*
X698500Y711200D03*
D11*
X127400Y444500D03*
D12*
X200400Y421700D03*
X200400Y467300D03*
D11*
X628250Y444500D03*
D12*
X555250Y467300D03*
X555250Y421700D03*
D13*
X395900Y584200D03*
X366100Y584200D03*
X395900Y552450D03*
X366100Y552450D03*
X395900Y520700D03*
X366100Y520700D03*
X192700Y647700D03*
X162900Y647700D03*
X192700Y615950D03*
X162900Y615950D03*
X192700Y584200D03*
X162900Y584200D03*
X586400Y588010D03*
X556600Y588010D03*
X613750Y589280D03*
X643550Y589280D03*
D14*
X679450Y410550D03*
X679450Y440350D03*
D13*
X435950Y190500D03*
X465750Y190500D03*
D15*
X247904Y609600D02*
X234696Y609600D01*
X234696Y584200D02*
X247904Y584200D01*
X310896Y584200D02*
X324104Y584200D01*
X324104Y609600D02*
X310896Y609600D01*
X247904Y558800D02*
X234696Y558800D01*
X234696Y533400D02*
X247904Y533400D01*
X310896Y558800D02*
X324104Y558800D01*
X324104Y533400D02*
X310896Y533400D01*
D13*
X211750Y342900D03*
X181950Y342900D03*
D14*
X184150Y205400D03*
X184150Y175600D03*
D16*
X50800Y468350D03*
X50800Y433350D03*
X704850Y433350D03*
X704850Y468350D03*
D17*
X25400Y613450D03*
X76200Y613450D03*
D18*
X50800Y714450D03*
D10*
X673100Y228600D03*
X698500Y228600D03*
D19*
X529100Y381000D03*
X563100Y381000D03*
D20*
X254000Y391650D03*
X254000Y357650D03*
D21*
X330200Y859350D03*
X342900Y859350D03*
X355600Y859350D03*
X368300Y859350D03*
X381000Y859350D03*
X393700Y859350D03*
X406400Y859350D03*
X419100Y859350D03*
X419100Y931350D03*
X406400Y931350D03*
X393700Y931350D03*
X381000Y931350D03*
X368300Y931350D03*
X355600Y931350D03*
X342900Y931350D03*
X330200Y931350D03*
D20*
X285750Y865650D03*
X285750Y899650D03*
X450850Y884700D03*
X450850Y918700D03*
D10*
X571500Y228600D03*
X596900Y228600D03*
X622300Y228600D03*
X647700Y228600D03*
X520700Y228600D03*
X495300Y228600D03*
X469900Y228600D03*
X444500Y228600D03*
X419100Y228600D03*
D14*
X374650Y827700D03*
X374650Y797900D03*
D13*
X319700Y806450D03*
X289900Y806450D03*
X465750Y304800D03*
X435950Y304800D03*
X395900Y304800D03*
X366100Y304800D03*
D22*
X450850Y449300D03*
X450850Y477800D03*
D23*
X701650Y565450D03*
X692150Y565450D03*
X682650Y565450D03*
X682650Y539450D03*
X701650Y539450D03*
D24*
X502840Y901700D02*
X487760Y901700D01*
X487760Y927100D02*
X502840Y927100D01*
X502840Y876300D02*
X487760Y876300D01*
X261540Y901700D02*
X246460Y901700D01*
X246460Y927100D02*
X261540Y927100D01*
X261540Y876300D02*
X246460Y876300D01*
X134540Y774700D02*
X119460Y774700D01*
X119460Y800100D02*
X134540Y800100D01*
X134540Y749300D02*
X119460Y749300D01*
X602060Y774700D02*
X617140Y774700D01*
X617140Y800100D02*
X602060Y800100D01*
X602060Y749300D02*
X617140Y749300D01*
X128190Y101600D02*
X113110Y101600D01*
X113110Y127000D02*
X128190Y127000D01*
X128190Y76200D02*
X113110Y76200D01*
X233760Y101600D02*
X248840Y101600D01*
X248840Y127000D02*
X233760Y127000D01*
X233760Y76200D02*
X248840Y76200D01*
X500460Y101600D02*
X515540Y101600D01*
X515540Y127000D02*
X500460Y127000D01*
X500460Y76200D02*
X515540Y76200D01*
X621110Y101600D02*
X636190Y101600D01*
X636190Y127000D02*
X621110Y127000D01*
X621110Y76200D02*
X636190Y76200D01*
X381000Y646510D02*
X381000Y661590D01*
X355600Y661590D02*
X355600Y646510D01*
X330200Y646510D02*
X330200Y661590D01*
X406400Y661590D02*
X406400Y646510D01*
X387350Y58340D02*
X387350Y43260D01*
X361950Y43260D02*
X361950Y58340D01*
X336550Y58340D02*
X336550Y43260D01*
X412750Y43260D02*
X412750Y58340D01*
X299640Y774700D02*
X284560Y774700D01*
X284560Y749300D02*
X299640Y749300D01*
X443310Y774700D02*
X458390Y774700D01*
X458390Y749300D02*
X443310Y749300D01*
X121840Y927100D02*
X106760Y927100D01*
X106760Y901700D02*
X121840Y901700D01*
X627460Y927100D02*
X642540Y927100D01*
X642540Y901700D02*
X627460Y901700D01*
X374650Y280590D02*
X374650Y265510D01*
X400050Y265510D02*
X400050Y280590D01*
X425450Y280590D02*
X425450Y265510D01*
X425450Y280590D01*
X349250Y280590D02*
X349250Y265510D01*
X323850Y265510D02*
X323850Y280590D01*
D25*
X152400Y292650D02*
X152400Y266150D01*
X105400Y266150D02*
X105400Y292650D01*
X199400Y292650D02*
X199400Y266150D01*
D26*
X587900Y292100D02*
X605900Y292100D01*
X627900Y292100D02*
X645900Y292100D01*
X605900Y265100D02*
X587900Y265100D01*
X565900Y265100D02*
X547900Y265100D01*
X627900Y265100D02*
X645900Y265100D01*
X565900Y292100D02*
X547900Y292100D01*
D14*
X527050Y569300D03*
X527050Y599100D03*
D13*
X541950Y642620D03*
X512150Y642620D03*
D21*
X412750Y407000D03*
X400050Y407000D03*
X387350Y407000D03*
X374650Y407000D03*
X374650Y355000D03*
X387350Y355000D03*
X400050Y355000D03*
X412750Y355000D03*
D13*
X689950Y609600D03*
X719750Y609600D03*
D14*
X508000Y503850D03*
X508000Y474050D03*
D13*
X461350Y336550D03*
X491150Y336550D03*
D24*
X477440Y666750D02*
X462360Y666750D01*
X462360Y615950D02*
X477440Y615950D01*
X477440Y641350D02*
X462360Y641350D01*
X462360Y590550D02*
X477440Y590550D01*
X477440Y539750D02*
X462360Y539750D01*
X462360Y565150D02*
X477440Y565150D01*
D27*
X635120Y650732D03*
X630040Y650732D03*
X624960Y650732D03*
X619880Y650732D03*
X619880Y621268D03*
X624960Y621268D03*
X630040Y621268D03*
X635120Y621268D03*
D28*
X335000Y154500D03*
D29*
X335049Y154564D03*
X412145Y154564D03*
D30*
X322000Y154000D03*
D31*
X335000Y146000D03*
D30*
X348000Y155000D03*
D32*
X334500Y163000D03*
D33*
X321000Y154500D03*
D34*
X412500Y154500D03*
D10*
X393000Y228500D03*
X25000Y382500D03*
X25000Y427500D03*
D35*
X602000Y381000D03*
X638000Y381000D03*
X602000Y508000D03*
X638000Y508000D03*
X155000Y508000D03*
X119000Y508000D03*
X157700Y381000D03*
X121700Y381000D03*
D36*
X476250Y730250D03*
D37*
X482600Y717550D02*
X482600Y711200D01*
D38*
X482600Y717550D02*
X482600Y723900D01*
X476250Y730250D01*
X647700Y215900D02*
X647700Y152400D01*
D36*
X647700Y152400D03*
D38*
X622300Y165100D02*
X622300Y222250D01*
X622300Y165100D02*
X590550Y133350D01*
X590550Y127000D01*
D36*
X590550Y127000D03*
D38*
X596900Y171450D02*
X596900Y228600D01*
X596900Y171450D02*
X571500Y146050D01*
X565150Y146050D01*
D36*
X565150Y146050D03*
D38*
X571500Y184150D02*
X571500Y222250D01*
X571500Y184150D02*
X552450Y165100D01*
X546100Y165100D01*
D36*
X546100Y165100D03*
D37*
X622300Y723900D02*
X641350Y742950D01*
X641350Y812800D01*
X552450Y901700D01*
X552450Y933450D01*
X533400Y952500D01*
X476250Y952500D02*
X469900Y946150D01*
X476250Y952500D02*
X533400Y952500D01*
D38*
X622300Y723900D02*
X622300Y711200D01*
D37*
X469900Y869950D02*
X469900Y946150D01*
X469900Y869950D02*
X488950Y850900D01*
X488950Y831850D01*
X482600Y825500D01*
X419100Y825500D01*
X406400Y838200D01*
X406400Y850900D01*
D36*
X450850Y952500D03*
D37*
X425450Y952500D01*
X419100Y946150D01*
X419100Y933450D01*
D36*
X615950Y952500D03*
D37*
X590550Y977900D01*
X393700Y977900D01*
X381000Y965200D01*
D39*
X381000Y952500D01*
X381000Y939800D01*
D37*
X381000Y933450D02*
X381000Y952500D01*
D36*
X184150Y844550D03*
D39*
X368300Y939800D02*
X368300Y952500D01*
X368300Y965200D01*
D37*
X355600Y977900D01*
X247650Y977900D01*
X184150Y914400D01*
X184150Y844550D01*
X368300Y933450D02*
X368300Y952500D01*
D36*
X279400Y952500D03*
D37*
X317500Y952500D02*
X330200Y939800D01*
X317500Y952500D02*
X279400Y952500D01*
D39*
X457200Y717550D02*
X457200Y711200D01*
D37*
X450850Y723900D02*
X444500Y723900D01*
X400050Y768350D01*
X368300Y768350D01*
X355600Y781050D01*
D39*
X355600Y857250D01*
D38*
X450850Y723900D02*
X457200Y717550D01*
D36*
X673100Y692150D03*
D40*
X673100Y704850D01*
D36*
X660400Y622300D03*
D40*
X660400Y603250D01*
X645160Y588010D01*
X641350Y588010D01*
D37*
X317500Y438150D02*
X317500Y323850D01*
X355600Y476250D02*
X381000Y476250D01*
X355600Y476250D02*
X317500Y438150D01*
D36*
X381000Y476250D03*
D37*
X317500Y323850D02*
X285750Y292100D01*
D36*
X387350Y82550D03*
D37*
X368300Y101600D01*
X317500Y101600D01*
X285750Y133350D02*
X285750Y292100D01*
X285750Y133350D02*
X317500Y101600D01*
X571500Y704850D02*
X571500Y711200D01*
D38*
X571500Y704850D02*
X571500Y698500D01*
D37*
X571500Y692150D01*
D36*
X571500Y692150D03*
D37*
X304800Y444500D02*
X304800Y330200D01*
X438150Y527050D02*
X438150Y666750D01*
X438150Y527050D02*
X406400Y495300D01*
X355600Y495300D01*
X304800Y444500D01*
D41*
X406400Y708660D02*
X403860Y711200D01*
X406400Y708660D02*
X406400Y698500D01*
D37*
X438150Y666750D01*
X273050Y298450D02*
X273050Y114300D01*
X304800Y82550D01*
D36*
X304800Y82550D03*
D37*
X273050Y298450D02*
X304800Y330200D01*
D36*
X50800Y571500D03*
D38*
X50800Y673100D01*
D36*
X254000Y425450D03*
D38*
X76200Y571500D02*
X76200Y609600D01*
D36*
X76200Y571500D03*
D38*
X203200Y419100D02*
X209550Y419100D01*
X203200Y419100D02*
X209550Y412750D01*
X209550Y419100D01*
D36*
X209550Y381000D03*
D38*
X209550Y412750D01*
D41*
X209550Y381000D02*
X158750Y381000D01*
D37*
X254000Y393700D02*
X254000Y425450D01*
D36*
X349250Y381000D03*
D38*
X565150Y463550D02*
X565150Y469900D01*
X565150Y463550D02*
X539750Y463550D01*
X533400Y463550D02*
X558800Y463550D01*
D41*
X571500Y508000D02*
X596900Y508000D01*
D38*
X558800Y469900D02*
X558800Y463550D01*
X558800Y469900D02*
X565150Y469900D01*
X558800Y469900D02*
X533400Y469900D01*
D41*
X571500Y508000D01*
D38*
X533400Y469900D02*
X533400Y463550D01*
X533400Y469900D02*
X539750Y463550D01*
D36*
X533400Y469900D03*
D37*
X527050Y381000D02*
X514350Y381000D01*
X514350Y419100D01*
D36*
X514350Y419100D03*
X450850Y381000D03*
D38*
X349250Y381000D01*
D36*
X660400Y749300D03*
D39*
X660400Y736600D01*
X647700Y723900D01*
X647700Y717550D02*
X647700Y711200D01*
D38*
X647700Y717550D02*
X647700Y723900D01*
D37*
X279400Y342900D02*
X234950Y298450D01*
X234950Y203200D01*
X241300Y196850D01*
D36*
X241300Y196850D03*
X304800Y209550D03*
D37*
X304800Y171450D01*
X273050Y615950D02*
X260350Y628650D01*
X247650Y628650D01*
X234950Y641350D01*
X234950Y660400D01*
X222250Y717550D02*
X234950Y730250D01*
X222250Y717550D02*
X222250Y673100D01*
X234950Y660400D01*
X374650Y717550D02*
X381000Y711200D01*
D38*
X374650Y717550D02*
X374650Y723900D01*
D37*
X368300Y730250D01*
X234950Y730250D01*
X273050Y615950D02*
X273050Y457200D01*
X279400Y450850D01*
X279400Y342900D01*
X304800Y171450D02*
X323850Y152400D01*
X323850Y158750D01*
D38*
X546100Y711200D02*
X546100Y762000D01*
D37*
X495300Y812800D01*
X412750Y812800D01*
X393700Y831850D01*
D39*
X393700Y850900D01*
D37*
X393700Y857250D02*
X393700Y831850D01*
D36*
X527050Y876300D03*
D37*
X577850Y742950D02*
X596900Y723900D01*
X577850Y742950D02*
X577850Y825500D01*
X527050Y876300D01*
D38*
X596900Y723900D02*
X596900Y711200D01*
D37*
X450850Y444500D02*
X450850Y425450D01*
X419100Y425450D01*
X412750Y419100D01*
X412750Y406400D01*
D38*
X495300Y444500D02*
X495300Y171450D01*
X457200Y133350D01*
X457200Y101600D01*
D36*
X457200Y101600D03*
X285750Y50800D03*
D37*
X196850Y50800D01*
X184150Y63500D01*
D36*
X184150Y101600D03*
D37*
X184150Y63500D01*
X184150Y88900D02*
X184150Y101600D01*
X184150Y171450D01*
D38*
X495300Y444500D02*
X508000Y444500D01*
X615950Y444500D01*
D36*
X311150Y508000D03*
D37*
X311150Y476250D01*
D36*
X311150Y476250D03*
X209550Y444500D03*
D38*
X152400Y444500D01*
D36*
X495300Y444500D03*
X450850Y425450D03*
D37*
X508000Y444500D02*
X508000Y469900D01*
D36*
X469900Y844550D03*
D37*
X425450Y844550D01*
X419100Y844550D01*
X419100Y850900D01*
X425450Y844550D01*
D36*
X412750Y781050D03*
D37*
X393700Y781050D01*
X381000Y793750D01*
X368300Y793750D01*
X184150Y342900D02*
X82550Y342900D01*
X50800Y374650D02*
X50800Y425450D01*
X50800Y374650D02*
X82550Y342900D01*
D36*
X419100Y622300D03*
X342900Y622300D03*
D37*
X419100Y622300D01*
D36*
X342900Y558800D03*
D37*
X361950Y552450D02*
X368300Y552450D01*
D38*
X361950Y552450D02*
X349250Y552450D01*
X342900Y558800D01*
D36*
X342900Y584200D03*
D38*
X361950Y584200D01*
D37*
X133350Y641350D02*
X133350Y685800D01*
X133350Y641350D02*
X158750Y615950D01*
X133350Y685800D02*
X203200Y755650D01*
X203200Y787400D01*
X215900Y800100D01*
X260350Y800100D01*
D36*
X260350Y800100D03*
X228600Y768350D03*
D37*
X152400Y673100D02*
X152400Y654050D01*
X228600Y749300D02*
X228600Y768350D01*
X228600Y749300D02*
X152400Y673100D01*
X152400Y654050D02*
X158750Y647700D01*
X361950Y520700D02*
X368300Y520700D01*
D36*
X342900Y533400D03*
D38*
X349250Y520700D02*
X361950Y520700D01*
X349250Y520700D02*
X342900Y527050D01*
X342900Y533400D01*
D36*
X209550Y527050D03*
D37*
X209550Y577850D01*
D36*
X215900Y584200D03*
D37*
X209550Y577850D01*
D38*
X215900Y584200D02*
X196850Y584200D01*
D37*
X279400Y666750D02*
X279400Y698500D01*
X279400Y666750D02*
X273050Y660400D01*
X273050Y641350D01*
D36*
X273050Y641350D03*
D38*
X279400Y698500D02*
X279400Y704850D01*
D37*
X254000Y698500D02*
X254000Y660400D01*
D36*
X254000Y660400D03*
D38*
X254000Y698500D02*
X254000Y704850D01*
D36*
X215900Y615950D03*
D38*
X196850Y615950D01*
D36*
X215900Y647700D03*
D37*
X196850Y647700D01*
D36*
X419100Y596900D03*
X184150Y508000D03*
D38*
X165100Y508000D01*
X190500Y469900D02*
X190500Y463550D01*
D37*
X190500Y469900D02*
X203200Y469900D01*
D38*
X190500Y469900D02*
X222250Y469900D01*
X184150Y508000D01*
D37*
X203200Y469900D02*
X203200Y463550D01*
D38*
X190500Y463550D01*
X203200Y463550D02*
X228600Y463550D01*
D36*
X133350Y584200D03*
D38*
X406400Y584200D02*
X419100Y596900D01*
X406400Y584200D02*
X400050Y584200D01*
X406400Y584200D02*
X412750Y577850D01*
X412750Y558800D01*
X406400Y552450D01*
X400050Y552450D01*
X406400Y552450D02*
X412750Y546100D01*
X412750Y527050D01*
X406400Y520700D01*
X400050Y520700D01*
X158750Y584200D02*
X133350Y584200D01*
X222250Y469900D02*
X228600Y463550D01*
X228600Y349250D01*
D37*
X215900Y342900D02*
X209550Y342900D01*
D38*
X222250Y342900D02*
X228600Y349250D01*
X222250Y342900D02*
X215900Y342900D01*
D37*
X222250Y342900D02*
X247650Y342900D01*
X254000Y349250D01*
X254000Y355600D01*
D41*
X120650Y381000D02*
X107950Y381000D01*
X107950Y425450D01*
D37*
X476250Y800100D02*
X520700Y755650D01*
X476250Y800100D02*
X400050Y800100D01*
D36*
X400050Y800100D03*
D38*
X520700Y755650D02*
X520700Y717550D01*
X82550Y400050D02*
X82550Y374650D01*
X82550Y400050D02*
X76200Y406400D01*
X76200Y527050D01*
X152400Y812800D02*
X139700Y825500D01*
X101600Y825500D01*
D36*
X82550Y844550D03*
D38*
X101600Y825500D01*
X152400Y812800D02*
X152400Y736600D01*
X114300Y698500D01*
X114300Y641350D01*
X101600Y628650D01*
X101600Y552450D02*
X76200Y527050D01*
X101600Y552450D02*
X101600Y628650D01*
D36*
X82550Y374650D03*
D37*
X425450Y723900D02*
X412750Y736600D01*
X393700Y736600D01*
X381000Y749300D01*
X361950Y749300D01*
X342900Y768350D01*
D39*
X342900Y850900D02*
X342900Y857250D01*
D38*
X425450Y723900D02*
X431800Y717550D01*
D37*
X342900Y768350D02*
X342900Y850900D01*
X209550Y184150D02*
X215900Y177800D01*
D36*
X209550Y222250D03*
D37*
X209550Y184150D01*
X215900Y177800D02*
X254000Y177800D01*
X342900Y692150D02*
X349250Y698500D01*
X342900Y692150D02*
X330200Y692150D01*
X292100Y654050D01*
X292100Y336550D02*
X260350Y304800D01*
X260350Y184150D01*
X254000Y177800D01*
D38*
X349250Y698500D02*
X349250Y704850D01*
D37*
X209550Y222250D02*
X190500Y222250D01*
X184150Y215900D01*
X184150Y209550D01*
X292100Y336550D02*
X292100Y654050D01*
D36*
X558800Y812800D03*
X508000Y825500D03*
D37*
X520700Y812800D02*
X558800Y812800D01*
X520700Y812800D02*
X508000Y825500D01*
D36*
X673100Y177800D03*
D37*
X685800Y177800D01*
X698500Y190500D01*
X698500Y222250D01*
X673100Y234950D02*
X673100Y241300D01*
X692150Y260350D01*
X692150Y285750D01*
X664210Y313690D01*
X538480Y313690D01*
D36*
X538480Y313690D03*
D37*
X419100Y234950D02*
X419100Y228600D01*
D38*
X577850Y368300D02*
X587375Y377825D01*
X577850Y368300D02*
X558800Y349250D01*
X520700Y349250D01*
X520700Y323850D01*
X520700Y158750D01*
X546100Y133350D01*
X546100Y76200D01*
D36*
X546100Y76200D03*
D38*
X565150Y381000D02*
X584200Y381000D01*
X587375Y377825D01*
X590550Y381000D02*
X577850Y393700D01*
X552450Y419100D01*
D37*
X558800Y419100D02*
X558800Y425450D01*
X533400Y425450D01*
D38*
X539750Y419100D02*
X552450Y419100D01*
D37*
X558800Y419100D02*
X539750Y419100D01*
D36*
X533400Y419100D03*
D37*
X533400Y425450D01*
D38*
X533400Y419100D02*
X539750Y419100D01*
X590550Y381000D02*
X596900Y381000D01*
X590550Y381000D02*
X584200Y381000D01*
X577850Y393700D02*
X577850Y368300D01*
X546100Y76200D02*
X546100Y57150D01*
X533400Y44450D01*
X469900Y44450D01*
X368300Y146050D01*
X368300Y171450D01*
X330200Y209550D01*
D36*
X330200Y209550D03*
X520700Y323850D03*
X539750Y330200D03*
D37*
X527050Y330200D01*
X520700Y323850D01*
D36*
X704850Y635000D03*
D38*
X127000Y158750D02*
X107950Y158750D01*
X127000Y158750D02*
X158750Y127000D01*
X158750Y50800D01*
D36*
X158750Y50800D03*
X107950Y158750D03*
D37*
X368300Y863600D02*
X368300Y876300D01*
X361950Y882650D01*
X323850Y882650D01*
X311150Y869950D01*
X311150Y857250D01*
X285750Y831850D01*
X273050Y831850D01*
D36*
X209550Y901700D03*
D37*
X209550Y831850D02*
X209550Y825500D01*
X209550Y831850D02*
X209550Y901700D01*
X209550Y825500D02*
X177800Y793750D01*
X177800Y774700D01*
D36*
X177800Y774700D03*
D37*
X215900Y825500D02*
X266700Y825500D01*
X285750Y806450D01*
X215900Y825500D02*
X209550Y831850D01*
X209550Y825500D02*
X215900Y825500D01*
X266700Y825500D02*
X273050Y831850D01*
X355600Y933450D02*
X355600Y939800D01*
X342900Y939800D02*
X342900Y933450D01*
X355600Y933450D01*
X355600Y927100D01*
X342900Y927100D01*
X342900Y933450D01*
X342900Y946150D02*
X342900Y952500D01*
X342900Y958850D01*
X355600Y958850D01*
X355600Y952500D01*
X355600Y946150D02*
X355600Y939800D01*
X342900Y939800D01*
X342900Y946150D01*
X349250Y946150D01*
X355600Y946150D01*
X355600Y952500D01*
X349250Y952500D01*
X342900Y952500D01*
X349250Y952500D02*
X349250Y946150D01*
X450850Y927100D02*
X450850Y920750D01*
X450850Y927100D02*
X425450Y901700D01*
X50800Y482600D02*
X50800Y469900D01*
X50800Y482600D02*
X44450Y488950D01*
X31750Y488950D01*
X25400Y495300D01*
D38*
X101600Y488950D02*
X107950Y482600D01*
X101600Y488950D02*
X101600Y501650D01*
X107950Y482600D02*
X107950Y463550D01*
D41*
X101600Y501650D02*
X101600Y508000D01*
D36*
X101600Y501650D03*
D38*
X25400Y571500D02*
X25400Y622300D01*
D36*
X25400Y571500D03*
X171450Y977900D03*
D38*
X165100Y971550D01*
X165100Y889000D01*
D36*
X127000Y850900D03*
D38*
X165100Y889000D01*
D41*
X127000Y508000D02*
X101600Y508000D01*
D37*
X25400Y495300D02*
X25400Y571500D01*
D36*
X285750Y920750D03*
D37*
X285750Y901700D01*
X304800Y901700D02*
X425450Y901700D01*
X304800Y901700D02*
X285750Y920750D01*
D36*
X349250Y958850D03*
D37*
X393700Y958850D02*
X393700Y952500D01*
X400050Y952500D01*
X406400Y952500D01*
X406400Y958850D01*
X406400Y952500D02*
X406400Y946150D01*
D36*
X400050Y958850D03*
D37*
X400050Y952500D01*
X400050Y958850D02*
X406400Y958850D01*
X400050Y958850D02*
X393700Y958850D01*
X393700Y946150D02*
X406400Y946150D01*
X393700Y946150D02*
X393700Y952500D01*
X393700Y946150D02*
X393700Y939800D01*
X400050Y939800D01*
X400050Y958850D01*
X400050Y939800D02*
X406400Y939800D01*
X406400Y946150D01*
X406400Y939800D02*
X406400Y933450D01*
X400050Y939800D01*
X400050Y933450D01*
X393700Y939800D01*
X393700Y933450D02*
X400050Y933450D01*
X400050Y927100D01*
X393700Y933450D01*
X393700Y927100D02*
X400050Y927100D01*
X406400Y927100D02*
X406400Y933450D01*
X406400Y927100D02*
X400050Y927100D01*
D38*
X425450Y184150D02*
X425450Y158750D01*
X425450Y184150D02*
X425450Y196850D01*
X431800Y196850D01*
X431800Y184150D01*
X425450Y184150D01*
X425450Y158750D02*
X425450Y152400D01*
X419100Y152400D01*
X419100Y158750D01*
X425450Y158750D01*
X469900Y184150D02*
X469900Y222250D01*
D36*
X469900Y260350D03*
D37*
X469900Y228600D01*
D40*
X504190Y681990D02*
X689610Y681990D01*
X723900Y647700D01*
X723900Y594360D01*
X702310Y572770D01*
X702310Y567690D01*
X504190Y681990D02*
X488950Y666750D01*
X478790Y666750D01*
D37*
X374650Y831850D02*
X381000Y838200D01*
X381000Y857250D01*
X285750Y857250D02*
X279400Y850900D01*
D36*
X254000Y850900D03*
D37*
X279400Y850900D01*
D36*
X317500Y831850D03*
D37*
X323850Y800100D02*
X330200Y800100D01*
X330200Y838200D02*
X330200Y850900D01*
X330200Y831850D02*
X330200Y825500D01*
X330200Y819150D01*
X330200Y812800D01*
X330200Y806450D02*
X323850Y806450D01*
X330200Y806450D02*
X330200Y812800D01*
X323850Y806450D01*
X317500Y806450D01*
X323850Y812800D01*
X330200Y819150D01*
X323850Y812800D02*
X317500Y812800D01*
X330200Y806450D02*
X330200Y800100D01*
X323850Y831850D02*
X317500Y831850D01*
X323850Y831850D02*
X330200Y831850D01*
X330200Y838200D01*
X323850Y831850D01*
X330200Y825500D01*
X438150Y876300D02*
X450850Y876300D01*
X438150Y876300D02*
X431800Y882650D01*
X387350Y882650D01*
X381000Y876300D01*
X381000Y863600D01*
X704850Y431800D02*
X704850Y412750D01*
X698500Y406400D01*
X673100Y406400D01*
X590550Y546100D02*
X558800Y546100D01*
D36*
X590550Y546100D03*
X692150Y584200D03*
D37*
X558800Y546100D02*
X533400Y520700D01*
X450850Y520700D01*
X387350Y457200D02*
X387350Y406400D01*
X387350Y457200D02*
X450850Y520700D01*
X666750Y444500D02*
X685800Y444500D01*
X666750Y444500D02*
X654050Y444500D01*
X660400Y450850D02*
X666750Y444500D01*
X660400Y450850D02*
X660400Y438150D01*
X666750Y444500D01*
X419100Y222250D02*
X412750Y215900D01*
D36*
X412750Y209550D03*
D37*
X412750Y215900D01*
X679450Y501650D02*
X679450Y539750D01*
X679450Y501650D02*
X704850Y476250D01*
X704850Y469900D01*
X368300Y304800D02*
X349250Y304800D01*
X400050Y450850D02*
X444500Y495300D01*
X450850Y495300D01*
X450850Y488950D01*
X450850Y482600D01*
X450850Y488950D02*
X444500Y495300D01*
X400050Y450850D02*
X400050Y438150D01*
X400050Y406400D01*
D36*
X412750Y438150D03*
D37*
X400050Y438150D01*
X342900Y317500D02*
X342900Y311150D01*
X342900Y317500D02*
X355600Y330200D01*
X381000Y330200D01*
X387350Y336550D01*
X387350Y355600D01*
X355600Y330200D02*
X349250Y330200D01*
X342900Y336550D01*
D36*
X342900Y349250D03*
D37*
X342900Y336550D01*
X342900Y311150D02*
X349250Y304800D01*
D36*
X698500Y692150D03*
D40*
X698500Y704850D01*
D36*
X698500Y647700D03*
D42*
X657860Y647700D01*
X643890Y661670D01*
X637540Y661670D01*
X635000Y659130D01*
X635000Y651510D01*
D37*
X469900Y279400D02*
X438150Y247650D01*
X304800Y247650D01*
X298450Y254000D01*
X298450Y285750D01*
X330200Y317500D01*
X330200Y425450D01*
X349250Y444500D01*
X368300Y444500D01*
X374650Y438150D01*
X374650Y406400D01*
X469900Y317500D02*
X469900Y279400D01*
X469900Y317500D02*
X463550Y323850D01*
D36*
X438150Y336550D03*
D37*
X463550Y336550D01*
X438150Y336550D02*
X419100Y336550D01*
X412750Y342900D01*
X412750Y355600D01*
X463550Y336550D02*
X463550Y323850D01*
D36*
X603250Y342900D03*
D37*
X666750Y342900D01*
X692150Y368300D01*
X692150Y374650D01*
D36*
X692150Y374650D03*
X539750Y546100D03*
D37*
X533400Y539750D01*
X482600Y539750D01*
D36*
X629920Y605790D03*
X565150Y664210D03*
D38*
X431800Y304800D02*
X412750Y304800D01*
X400050Y304800D01*
D37*
X412750Y304800D02*
X412750Y317500D01*
X400050Y330200D01*
X400050Y355600D01*
X704850Y514350D02*
X704850Y539750D01*
D36*
X704850Y514350D03*
X565150Y527050D03*
X501650Y590550D03*
D37*
X565150Y527050D02*
X546100Y508000D01*
D36*
X476250Y508000D03*
D37*
X546100Y508000D01*
X476250Y508000D02*
X476250Y361950D01*
D36*
X476250Y361950D03*
D37*
X476250Y590550D02*
X501650Y590550D01*
X387350Y228600D02*
X311150Y228600D01*
D36*
X311150Y228600D03*
X133350Y196850D03*
D37*
X25400Y304800D01*
X25400Y381000D01*
D40*
X483870Y641350D02*
X510540Y641350D01*
X588010Y589280D02*
X612140Y589280D01*
D42*
X629920Y654050D02*
X629920Y670560D01*
X626110Y674370D02*
X519430Y674370D01*
X497840Y652780D01*
X497840Y641350D01*
X626110Y674370D02*
X629920Y670560D01*
D40*
X524510Y613410D02*
X524510Y598170D01*
X524510Y613410D02*
X521970Y615950D01*
X476250Y615950D01*
X500380Y642620D02*
X499110Y643890D01*
X496570Y643890D01*
X495300Y642620D01*
X681990Y575310D02*
X681990Y566420D01*
D41*
X647700Y520700D02*
X647700Y514350D01*
X647700Y508000D01*
X647700Y444500D01*
X647700Y381000D01*
X647700Y444500D02*
X635000Y444500D01*
X635000Y508000D02*
X647700Y508000D01*
X647700Y381000D02*
X635000Y381000D01*
D37*
X647700Y552450D02*
X641350Y558800D01*
X647700Y552450D02*
X647700Y514350D01*
D43*
X647700Y552450D02*
X647700Y558800D01*
X641350Y558800D01*
D37*
X647700Y558800D02*
X673100Y584200D01*
X641350Y558800D02*
X635000Y565150D01*
X553720Y565150D01*
X552450Y565150D01*
X481330Y565150D01*
X673100Y584200D02*
X673100Y603250D01*
X679450Y609600D01*
X692150Y609600D01*
X543560Y624840D02*
X543560Y645160D01*
X543560Y624840D02*
X546100Y622300D01*
D36*
X546100Y622300D03*
X546100Y622300D03*
X552450Y565150D03*
D40*
X556260Y567690D02*
X556260Y584200D01*
X556260Y567690D02*
X553720Y565150D01*
X673100Y584200D02*
X681990Y575310D01*
X692150Y582930D02*
X692150Y567690D01*
D42*
X625000Y662000D02*
X622000Y665000D01*
X619500Y667500D01*
X568000Y667500D01*
X565000Y664500D01*
X565000Y663500D01*
X625100Y661900D02*
X625100Y655100D01*
X625100Y661900D02*
X625000Y662000D01*
X619500Y659000D02*
X619500Y652500D01*
X619500Y659000D02*
X618500Y660000D01*
X594500Y660000D01*
X556500Y622000D01*
X546000Y622000D01*
X635500Y620000D02*
X635500Y615000D01*
X638500Y612000D01*
X646000Y612000D01*
X648500Y614500D01*
X648500Y628000D01*
X655500Y635000D01*
X705500Y635000D01*
X630000Y617000D02*
X630000Y605500D01*
X625000Y612000D02*
X625000Y616500D01*
X625000Y612000D02*
X618500Y605500D01*
X592000Y605500D01*
X586000Y599500D01*
X586000Y589500D01*
X619000Y614000D02*
X619500Y614500D01*
X619000Y614000D02*
X617500Y612500D01*
X524500Y612500D01*
D44*
X619000Y614000D02*
X620000Y615000D01*
X620000Y617000D01*
D45*
X0Y0D02*
X749300Y0D01*
X749300Y996950D01*
X0Y996950D01*
X0Y0D01*
X731900Y177407D02*
X731823Y176625D01*
X731670Y175854D01*
X731441Y175102D01*
X731141Y174375D01*
X730770Y173682D01*
X730333Y173029D01*
X729835Y172421D01*
X729279Y171865D01*
X728671Y171367D01*
X728018Y170930D01*
X727325Y170559D01*
X726598Y170259D01*
X725846Y170030D01*
X725075Y169877D01*
X724293Y169800D01*
X723507Y169800D01*
X722725Y169877D01*
X721954Y170030D01*
X721202Y170259D01*
X720475Y170559D01*
X719782Y170930D01*
X719129Y171367D01*
X718521Y171865D01*
X717965Y172421D01*
X717467Y173029D01*
X717030Y173682D01*
X716659Y174375D01*
X716359Y175102D01*
X716130Y175854D01*
X715977Y176625D01*
X715900Y177407D01*
X715900Y178193D01*
X715977Y178975D01*
X716130Y179746D01*
X716359Y180498D01*
X716659Y181225D01*
X717030Y181918D01*
X717467Y182571D01*
X717965Y183179D01*
X718521Y183735D01*
X719129Y184233D01*
X719782Y184670D01*
X720475Y185041D01*
X721202Y185341D01*
X721954Y185570D01*
X722725Y185723D01*
X723507Y185800D01*
X724293Y185800D01*
X725075Y185723D01*
X725846Y185570D01*
X726598Y185341D01*
X727325Y185041D01*
X728018Y184670D01*
X728671Y184233D01*
X729279Y183735D01*
X729835Y183179D01*
X730333Y182571D01*
X730770Y181918D01*
X731141Y181225D01*
X731441Y180498D01*
X731670Y179746D01*
X731823Y178975D01*
X731900Y178193D01*
X731900Y177407D01*
X46100Y177407D02*
X46023Y176625D01*
X45870Y175854D01*
X45641Y175102D01*
X45341Y174375D01*
X44970Y173682D01*
X44533Y173029D01*
X44035Y172421D01*
X43479Y171865D01*
X42871Y171367D01*
X42218Y170930D01*
X41525Y170559D01*
X40798Y170259D01*
X40046Y170030D01*
X39275Y169877D01*
X38493Y169800D01*
X37707Y169800D01*
X36925Y169877D01*
X36154Y170030D01*
X35402Y170259D01*
X34675Y170559D01*
X33982Y170930D01*
X33329Y171367D01*
X32721Y171865D01*
X32165Y172421D01*
X31667Y173029D01*
X31230Y173682D01*
X30859Y174375D01*
X30559Y175102D01*
X30330Y175854D01*
X30177Y176625D01*
X30100Y177407D01*
X30100Y178193D01*
X30177Y178975D01*
X30330Y179746D01*
X30559Y180498D01*
X30859Y181225D01*
X31230Y181918D01*
X31667Y182571D01*
X32165Y183179D01*
X32721Y183735D01*
X33329Y184233D01*
X33982Y184670D01*
X34675Y185041D01*
X35402Y185341D01*
X36154Y185570D01*
X36925Y185723D01*
X37707Y185800D01*
X38493Y185800D01*
X39275Y185723D01*
X40046Y185570D01*
X40798Y185341D01*
X41525Y185041D01*
X42218Y184670D01*
X42871Y184233D01*
X43479Y183735D01*
X44035Y183179D01*
X44533Y182571D01*
X44970Y181918D01*
X45341Y181225D01*
X45641Y180498D01*
X45870Y179746D01*
X46023Y178975D01*
X46100Y178193D01*
X46100Y177407D01*
X46100Y837807D02*
X46023Y837025D01*
X45870Y836254D01*
X45641Y835502D01*
X45341Y834775D01*
X44970Y834082D01*
X44533Y833429D01*
X44035Y832821D01*
X43479Y832265D01*
X42871Y831767D01*
X42218Y831330D01*
X41525Y830959D01*
X40798Y830659D01*
X40046Y830430D01*
X39275Y830277D01*
X38493Y830200D01*
X37707Y830200D01*
X36925Y830277D01*
X36154Y830430D01*
X35402Y830659D01*
X34675Y830959D01*
X33982Y831330D01*
X33329Y831767D01*
X32721Y832265D01*
X32165Y832821D01*
X31667Y833429D01*
X31230Y834082D01*
X30859Y834775D01*
X30559Y835502D01*
X30330Y836254D01*
X30177Y837025D01*
X30100Y837807D01*
X30100Y838593D01*
X30177Y839375D01*
X30330Y840146D01*
X30559Y840898D01*
X30859Y841625D01*
X31230Y842318D01*
X31667Y842971D01*
X32165Y843579D01*
X32721Y844135D01*
X33329Y844633D01*
X33982Y845070D01*
X34675Y845441D01*
X35402Y845741D01*
X36154Y845970D01*
X36925Y846123D01*
X37707Y846200D01*
X38493Y846200D01*
X39275Y846123D01*
X40046Y845970D01*
X40798Y845741D01*
X41525Y845441D01*
X42218Y845070D01*
X42871Y844633D01*
X43479Y844135D01*
X44035Y843579D01*
X44533Y842971D01*
X44970Y842318D01*
X45341Y841625D01*
X45641Y840898D01*
X45870Y840146D01*
X46023Y839375D01*
X46100Y838593D01*
X46100Y837807D01*
X731900Y837807D02*
X731823Y837025D01*
X731670Y836254D01*
X731441Y835502D01*
X731141Y834775D01*
X730770Y834082D01*
X730333Y833429D01*
X729835Y832821D01*
X729279Y832265D01*
X728671Y831767D01*
X728018Y831330D01*
X727325Y830959D01*
X726598Y830659D01*
X725846Y830430D01*
X725075Y830277D01*
X724293Y830200D01*
X723507Y830200D01*
X722725Y830277D01*
X721954Y830430D01*
X721202Y830659D01*
X720475Y830959D01*
X719782Y831330D01*
X719129Y831767D01*
X718521Y832265D01*
X717965Y832821D01*
X717467Y833429D01*
X717030Y834082D01*
X716659Y834775D01*
X716359Y835502D01*
X716130Y836254D01*
X715977Y837025D01*
X715900Y837807D01*
X715900Y838593D01*
X715977Y839375D01*
X716130Y840146D01*
X716359Y840898D01*
X716659Y841625D01*
X717030Y842318D01*
X717467Y842971D01*
X717965Y843579D01*
X718521Y844135D01*
X719129Y844633D01*
X719782Y845070D01*
X720475Y845441D01*
X721202Y845741D01*
X721954Y845970D01*
X722725Y846123D01*
X723507Y846200D01*
X724293Y846200D01*
X725075Y846123D01*
X725846Y845970D01*
X726598Y845741D01*
X727325Y845441D01*
X728018Y845070D01*
X728671Y844633D01*
X729279Y844135D01*
X729835Y843579D01*
X730333Y842971D01*
X730770Y842318D01*
X731141Y841625D01*
X731441Y840898D01*
X731670Y840146D01*
X731823Y839375D01*
X731900Y838593D01*
X731900Y837807D01*
X54950Y939387D02*
X54885Y938565D01*
X54756Y937750D01*
X54564Y936948D01*
X54309Y936163D01*
X53993Y935401D01*
X53618Y934666D01*
X53187Y933962D01*
X52702Y933295D01*
X52166Y932667D01*
X51583Y932084D01*
X50956Y931548D01*
X50288Y931063D01*
X49584Y930632D01*
X48849Y930257D01*
X48087Y929941D01*
X47302Y929686D01*
X46500Y929494D01*
X45685Y929365D01*
X44863Y929300D01*
X44037Y929300D01*
X43215Y929365D01*
X42400Y929494D01*
X41598Y929686D01*
X40813Y929941D01*
X40051Y930257D01*
X39316Y930632D01*
X38612Y931063D01*
X37945Y931548D01*
X37317Y932084D01*
X36734Y932667D01*
X36198Y933295D01*
X35713Y933962D01*
X35282Y934666D01*
X34907Y935401D01*
X34591Y936163D01*
X34336Y936948D01*
X34144Y937750D01*
X34015Y938565D01*
X33950Y939387D01*
X33950Y940213D01*
X34015Y941035D01*
X34144Y941850D01*
X34336Y942652D01*
X34591Y943437D01*
X34907Y944199D01*
X35282Y944934D01*
X35713Y945638D01*
X36198Y946306D01*
X36734Y946933D01*
X37317Y947516D01*
X37945Y948052D01*
X38612Y948537D01*
X39316Y948968D01*
X40051Y949343D01*
X40813Y949659D01*
X41598Y949914D01*
X42400Y950106D01*
X43215Y950235D01*
X44037Y950300D01*
X44863Y950300D01*
X45685Y950235D01*
X46500Y950106D01*
X47302Y949914D01*
X48087Y949659D01*
X48849Y949343D01*
X49584Y948968D01*
X50288Y948537D01*
X50956Y948052D01*
X51583Y947516D01*
X52166Y946933D01*
X52702Y946306D01*
X53187Y945638D01*
X53618Y944934D01*
X53993Y944199D01*
X54309Y943437D01*
X54564Y942652D01*
X54756Y941850D01*
X54885Y941035D01*
X54950Y940213D01*
X54950Y939387D01*
X715350Y939387D02*
X715285Y938565D01*
X715156Y937750D01*
X714964Y936948D01*
X714709Y936163D01*
X714393Y935401D01*
X714018Y934666D01*
X713587Y933962D01*
X713102Y933295D01*
X712566Y932667D01*
X711983Y932084D01*
X711356Y931548D01*
X710688Y931063D01*
X709984Y930632D01*
X709249Y930257D01*
X708487Y929941D01*
X707702Y929686D01*
X706900Y929494D01*
X706085Y929365D01*
X705263Y929300D01*
X704437Y929300D01*
X703615Y929365D01*
X702800Y929494D01*
X701998Y929686D01*
X701213Y929941D01*
X700451Y930257D01*
X699716Y930632D01*
X699012Y931063D01*
X698345Y931548D01*
X697717Y932084D01*
X697134Y932667D01*
X696598Y933295D01*
X696113Y933962D01*
X695682Y934666D01*
X695307Y935401D01*
X694991Y936163D01*
X694736Y936948D01*
X694544Y937750D01*
X694415Y938565D01*
X694350Y939387D01*
X694350Y940213D01*
X694415Y941035D01*
X694544Y941850D01*
X694736Y942652D01*
X694991Y943437D01*
X695307Y944199D01*
X695682Y944934D01*
X696113Y945638D01*
X696598Y946306D01*
X697134Y946933D01*
X697717Y947516D01*
X698345Y948052D01*
X699012Y948537D01*
X699716Y948968D01*
X700451Y949343D01*
X701213Y949659D01*
X701998Y949914D01*
X702800Y950106D01*
X703615Y950235D01*
X704437Y950300D01*
X705263Y950300D01*
X706085Y950235D01*
X706900Y950106D01*
X707702Y949914D01*
X708487Y949659D01*
X709249Y949343D01*
X709984Y948968D01*
X710688Y948537D01*
X711356Y948052D01*
X711983Y947516D01*
X712566Y946933D01*
X713102Y946306D01*
X713587Y945638D01*
X714018Y944934D01*
X714393Y944199D01*
X714709Y943437D01*
X714964Y942652D01*
X715156Y941850D01*
X715285Y941035D01*
X715350Y940213D01*
X715350Y939387D01*
X54950Y50387D02*
X54885Y49565D01*
X54756Y48750D01*
X54564Y47948D01*
X54309Y47163D01*
X53993Y46401D01*
X53618Y45666D01*
X53187Y44962D01*
X52702Y44295D01*
X52166Y43667D01*
X51583Y43084D01*
X50956Y42548D01*
X50288Y42063D01*
X49584Y41632D01*
X48849Y41257D01*
X48087Y40941D01*
X47302Y40686D01*
X46500Y40494D01*
X45685Y40365D01*
X44863Y40300D01*
X44037Y40300D01*
X43215Y40365D01*
X42400Y40494D01*
X41598Y40686D01*
X40813Y40941D01*
X40051Y41257D01*
X39316Y41632D01*
X38612Y42063D01*
X37945Y42548D01*
X37317Y43084D01*
X36734Y43667D01*
X36198Y44295D01*
X35713Y44962D01*
X35282Y45666D01*
X34907Y46401D01*
X34591Y47163D01*
X34336Y47948D01*
X34144Y48750D01*
X34015Y49565D01*
X33950Y50387D01*
X33950Y51213D01*
X34015Y52035D01*
X34144Y52850D01*
X34336Y53652D01*
X34591Y54437D01*
X34907Y55199D01*
X35282Y55934D01*
X35713Y56638D01*
X36198Y57306D01*
X36734Y57933D01*
X37317Y58516D01*
X37945Y59052D01*
X38612Y59537D01*
X39316Y59968D01*
X40051Y60343D01*
X40813Y60659D01*
X41598Y60914D01*
X42400Y61106D01*
X43215Y61235D01*
X44037Y61300D01*
X44863Y61300D01*
X45685Y61235D01*
X46500Y61106D01*
X47302Y60914D01*
X48087Y60659D01*
X48849Y60343D01*
X49584Y59968D01*
X50288Y59537D01*
X50956Y59052D01*
X51583Y58516D01*
X52166Y57933D01*
X52702Y57306D01*
X53187Y56638D01*
X53618Y55934D01*
X53993Y55199D01*
X54309Y54437D01*
X54564Y53652D01*
X54756Y52850D01*
X54885Y52035D01*
X54950Y51213D01*
X54950Y50387D01*
X715350Y50387D02*
X715285Y49565D01*
X715156Y48750D01*
X714964Y47948D01*
X714709Y47163D01*
X714393Y46401D01*
X714018Y45666D01*
X713587Y44962D01*
X713102Y44295D01*
X712566Y43667D01*
X711983Y43084D01*
X711356Y42548D01*
X710688Y42063D01*
X709984Y41632D01*
X709249Y41257D01*
X708487Y40941D01*
X707702Y40686D01*
X706900Y40494D01*
X706085Y40365D01*
X705263Y40300D01*
X704437Y40300D01*
X703615Y40365D01*
X702800Y40494D01*
X701998Y40686D01*
X701213Y40941D01*
X700451Y41257D01*
X699716Y41632D01*
X699012Y42063D01*
X698345Y42548D01*
X697717Y43084D01*
X697134Y43667D01*
X696598Y44295D01*
X696113Y44962D01*
X695682Y45666D01*
X695307Y46401D01*
X694991Y47163D01*
X694736Y47948D01*
X694544Y48750D01*
X694415Y49565D01*
X694350Y50387D01*
X694350Y51213D01*
X694415Y52035D01*
X694544Y52850D01*
X694736Y53652D01*
X694991Y54437D01*
X695307Y55199D01*
X695682Y55934D01*
X696113Y56638D01*
X696598Y57306D01*
X697134Y57933D01*
X697717Y58516D01*
X698345Y59052D01*
X699012Y59537D01*
X699716Y59968D01*
X700451Y60343D01*
X701213Y60659D01*
X701998Y60914D01*
X702800Y61106D01*
X703615Y61235D01*
X704437Y61300D01*
X705263Y61300D01*
X706085Y61235D01*
X706900Y61106D01*
X707702Y60914D01*
X708487Y60659D01*
X709249Y60343D01*
X709984Y59968D01*
X710688Y59537D01*
X711356Y59052D01*
X711983Y58516D01*
X712566Y57933D01*
X713102Y57306D01*
X713587Y56638D01*
X714018Y55934D01*
X714393Y55199D01*
X714709Y54437D01*
X714964Y53652D01*
X715156Y52850D01*
X715285Y52035D01*
X715350Y51213D01*
X715350Y50387D01*
M02*
