M48
;GenerationSoftware,Autodesk,EAGLE,9.6.2*%
;CreationDate,2023-01-03T20:54:12Z*%
FMAT,2
ICI,OFF
METRIC,TZ,000.000
T7C0.350
T6C0.813
T5C1.000
T4C1.200
T3C1.500
T2C1.600
T1C2.100
%
G90
M71
T1
X70485Y93980
X4445Y93980
X4445Y5080
X70485Y5080
T2
X72390Y83820
X72390Y17780
X3810Y17780
X3810Y83820
T3
X19940Y27940
X10540Y27940
X15240Y27940
T4
X55690Y29210
X63690Y26510
X55690Y26510
X59690Y26510
X63690Y29210
X59690Y29210
T5
X46990Y56515
X46990Y53975
X46990Y59055
X46990Y64135
X46990Y61595
X46990Y66675
X32385Y27305
X34925Y27305
X42545Y27305
X11430Y90170
X42545Y27305
X40005Y27305
X37465Y27305
X63500Y90170
X63500Y92710
X11430Y92710
X45085Y74930
X45085Y77470
X29210Y74930
X29210Y77470
X41275Y5080
X33655Y5080
X36195Y5080
X38735Y5080
X40640Y65405
X33020Y65405
X35560Y65405
X38100Y65405
X62865Y7620
X62865Y12700
X62865Y10160
X50800Y7620
X50800Y12700
X50800Y10160
X24130Y7620
X24130Y12700
X24130Y10160
X12065Y7620
X12065Y12700
X12065Y10160
X60960Y74930
X60960Y80010
X60960Y77470
X12700Y74930
X12700Y80010
X12700Y77470
X25400Y87630
X25400Y92710
X25400Y90170
X49530Y87630
X49530Y92710
X49530Y90170
X41910Y22860
X44450Y22860
X46990Y22860
X49530Y22860
X52070Y22860
X64770Y22860
X62230Y22860
X2500Y42750
X57150Y22860
X69850Y22860
X67310Y22860
X2500Y38250
X69850Y71120
X67310Y71120
X25140Y71120
X27680Y71120
X30220Y71120
X32760Y71120
X35300Y71120
X59690Y22860
X40380Y71120
X42920Y71120
X45460Y71120
X48000Y71120
X64770Y71120
X62230Y71120
X59690Y71120
X57150Y71120
X54610Y71120
X52070Y71120
X39300Y22850
X37840Y71120
T6
X31750Y60960
X24130Y55880
X24130Y53340
X31750Y55880
X31750Y53340
X31750Y58420
X24130Y60960
X24130Y58420
T7
X47625Y73025
X64770Y15240
X59055Y12700
X56515Y14605
X54610Y16510
X50165Y59055
X56515Y52705
X70485Y51435
X56515Y66421
X62992Y60579
X53975Y54610
X69215Y37465
X60325Y34290
X43815Y33655
X69850Y64770
X69850Y69215
X34290Y34925
X41275Y43815
X41275Y20955
X69215Y58420
X59055Y54610
X55245Y56515
X54610Y62230
X31750Y83185
X54610Y62230
X13335Y19685
X31115Y22860
X47625Y36195
X47625Y50800
X25400Y85090
X46990Y26035
X40005Y95885
X34925Y95885
X28575Y92075
X12700Y85090
X17145Y97790
X2540Y57150
X10160Y50165
X17780Y77470
X20955Y90170
X10795Y15875
X15875Y5080
X70485Y63500
X53975Y33020
X52070Y32385
X33020Y20955
X53340Y41910
X54610Y7620
X53848Y31369
X67310Y17780
X50800Y82550
X55880Y81280
X20955Y22225
X8255Y37465
X8255Y84455
X40005Y80010
X13335Y58420
X18415Y50800
X41910Y59690
X21590Y64770
X21590Y61595
X25400Y66040
X27305Y64135
X21590Y58420
X20955Y52705
X34290Y53340
X22860Y76835
X26035Y80010
X34290Y58420
X34290Y55880
X34290Y62230
X41910Y62230
X41275Y78105
X46990Y84455
X45085Y42545
X49530Y44450
X20955Y44450
X52705Y87630
X31115Y47625
X31115Y50800
X18415Y10160
X28575Y5080
X45720Y10160
X30480Y20955
X24130Y19685
X66040Y74930
X45085Y38100
X51435Y41910
X53340Y46990
X34925Y38100
X20955Y38100
X7620Y57150
X25400Y42545
X5080Y57150
X30480Y8255
X57150Y69215
X38735Y8255
X38100Y47625
X66040Y62230
X67310Y69215
X27940Y95250
X18415Y84455
X61595Y95250
X45085Y95250
M30