G04 EAGLE Gerber RS-274X export*
G75*
%MOMM*%
%FSLAX34Y34*%
%LPD*%
%INSoldermask Bottom*%
%IPPOS*%
%AMOC8*
5,1,8,0,0,1.08239X$1,22.5*%
G01*
%ADD10C,1.803200*%
%ADD11C,2.303200*%
%ADD12R,7.620000X11.430000*%
%ADD13R,8.001000X9.779000*%
%ADD14R,8.001000X10.033000*%
%ADD15R,7.620000X11.557000*%
%ADD16P,2.144431X8X22.500000*%
%ADD17C,1.524000*%
%ADD18C,1.711200*%
%ADD19C,2.853200*%
%ADD20C,2.003200*%
%ADD21C,0.959600*%
%ADD22C,0.254000*%


D10*
X723900Y177800D03*
X38100Y177800D03*
X38100Y838200D03*
X723900Y838200D03*
D11*
X44450Y939800D03*
X704850Y939800D03*
X44450Y50800D03*
X704850Y50800D03*
D12*
X711200Y933450D03*
D13*
X708025Y55245D03*
D14*
X41275Y53975D03*
D15*
X39370Y934085D03*
D16*
X520700Y711200D03*
X546100Y711200D03*
X571500Y711200D03*
X596900Y711200D03*
X622300Y711200D03*
X647700Y711200D03*
X480000Y711200D03*
X454600Y711200D03*
X429200Y711200D03*
X403800Y711200D03*
X378400Y711200D03*
X353000Y711200D03*
X327600Y711200D03*
X302200Y711200D03*
X276800Y711200D03*
X251400Y711200D03*
X673100Y711200D03*
X698500Y711200D03*
D17*
X247904Y609600D02*
X234696Y609600D01*
X234696Y584200D02*
X247904Y584200D01*
X310896Y584200D02*
X324104Y584200D01*
X324104Y609600D02*
X310896Y609600D01*
X247904Y558800D02*
X234696Y558800D01*
X234696Y533400D02*
X247904Y533400D01*
X310896Y558800D02*
X324104Y558800D01*
X324104Y533400D02*
X310896Y533400D01*
D16*
X673100Y228600D03*
X698500Y228600D03*
X571500Y228600D03*
X596900Y228600D03*
X622300Y228600D03*
X647700Y228600D03*
X520700Y228600D03*
X495300Y228600D03*
X469900Y228600D03*
X444500Y228600D03*
X419100Y228600D03*
D18*
X487760Y901700D02*
X502840Y901700D01*
X502840Y927100D02*
X487760Y927100D01*
X487760Y876300D02*
X502840Y876300D01*
X261540Y901700D02*
X246460Y901700D01*
X246460Y927100D02*
X261540Y927100D01*
X261540Y876300D02*
X246460Y876300D01*
X134540Y774700D02*
X119460Y774700D01*
X119460Y800100D02*
X134540Y800100D01*
X134540Y749300D02*
X119460Y749300D01*
X602060Y774700D02*
X617140Y774700D01*
X617140Y800100D02*
X602060Y800100D01*
X602060Y749300D02*
X617140Y749300D01*
X128190Y101600D02*
X113110Y101600D01*
X113110Y127000D02*
X128190Y127000D01*
X128190Y76200D02*
X113110Y76200D01*
X233760Y101600D02*
X248840Y101600D01*
X248840Y127000D02*
X233760Y127000D01*
X233760Y76200D02*
X248840Y76200D01*
X500460Y101600D02*
X515540Y101600D01*
X515540Y127000D02*
X500460Y127000D01*
X500460Y76200D02*
X515540Y76200D01*
X621110Y101600D02*
X636190Y101600D01*
X636190Y127000D02*
X621110Y127000D01*
X621110Y76200D02*
X636190Y76200D01*
X381000Y646510D02*
X381000Y661590D01*
X355600Y661590D02*
X355600Y646510D01*
X330200Y646510D02*
X330200Y661590D01*
X406400Y661590D02*
X406400Y646510D01*
X387350Y58340D02*
X387350Y43260D01*
X361950Y43260D02*
X361950Y58340D01*
X336550Y58340D02*
X336550Y43260D01*
X412750Y43260D02*
X412750Y58340D01*
X299640Y774700D02*
X284560Y774700D01*
X284560Y749300D02*
X299640Y749300D01*
X443310Y774700D02*
X458390Y774700D01*
X458390Y749300D02*
X443310Y749300D01*
X121840Y927100D02*
X106760Y927100D01*
X106760Y901700D02*
X121840Y901700D01*
X627460Y927100D02*
X642540Y927100D01*
X642540Y901700D02*
X627460Y901700D01*
X374650Y280590D02*
X374650Y265510D01*
X400050Y265510D02*
X400050Y280590D01*
X425450Y280590D02*
X425450Y265510D01*
X425450Y280590D01*
X349250Y280590D02*
X349250Y265510D01*
X323850Y265510D02*
X323850Y280590D01*
D19*
X152400Y292650D02*
X152400Y266150D01*
X105400Y266150D02*
X105400Y292650D01*
X199400Y292650D02*
X199400Y266150D01*
D20*
X587900Y292100D02*
X605900Y292100D01*
X627900Y292100D02*
X645900Y292100D01*
X605900Y265100D02*
X587900Y265100D01*
X565900Y265100D02*
X547900Y265100D01*
X627900Y265100D02*
X645900Y265100D01*
X565900Y292100D02*
X547900Y292100D01*
D18*
X477440Y666750D02*
X462360Y666750D01*
X462360Y615950D02*
X477440Y615950D01*
X477440Y641350D02*
X462360Y641350D01*
X462360Y590550D02*
X477440Y590550D01*
X477440Y539750D02*
X462360Y539750D01*
X462360Y565150D02*
X477440Y565150D01*
D16*
X393000Y228500D03*
X25000Y382500D03*
X25000Y427500D03*
D21*
X476250Y730250D03*
X647700Y152400D03*
X590550Y127000D03*
X565150Y146050D03*
X546100Y165100D03*
X450850Y952500D03*
X615950Y952500D03*
X184150Y844550D03*
X279400Y952500D03*
X673100Y692150D03*
X660400Y622300D03*
X381000Y476250D03*
X387350Y82550D03*
X571500Y692150D03*
X304800Y82550D03*
X50800Y571500D03*
X254000Y425450D03*
X76200Y571500D03*
X209550Y381000D03*
X349250Y381000D03*
X533400Y469900D03*
X514350Y419100D03*
X450850Y381000D03*
X660400Y749300D03*
X241300Y196850D03*
X304800Y209550D03*
X527050Y876300D03*
X457200Y101600D03*
X285750Y50800D03*
X184150Y101600D03*
X311150Y508000D03*
X311150Y476250D03*
X209550Y444500D03*
X495300Y444500D03*
X450850Y425450D03*
X469900Y844550D03*
X412750Y781050D03*
X419100Y622300D03*
X342900Y622300D03*
X342900Y558800D03*
X342900Y584200D03*
X260350Y800100D03*
X228600Y768350D03*
X342900Y533400D03*
X209550Y527050D03*
X215900Y584200D03*
X273050Y641350D03*
X254000Y660400D03*
X215900Y615950D03*
X215900Y647700D03*
X419100Y596900D03*
X184150Y508000D03*
X133350Y584200D03*
X400050Y800100D03*
X82550Y844550D03*
X82550Y374650D03*
X209550Y222250D03*
X558800Y812800D03*
X508000Y825500D03*
X673100Y177800D03*
X538480Y313690D03*
X546100Y76200D03*
X533400Y419100D03*
X330200Y209550D03*
X520700Y323850D03*
X539750Y330200D03*
X704850Y635000D03*
X158750Y50800D03*
X107950Y158750D03*
X209550Y901700D03*
X177800Y774700D03*
X101600Y501650D03*
X25400Y571500D03*
X171450Y977900D03*
X127000Y850900D03*
X285750Y920750D03*
X349250Y958850D03*
X400050Y958850D03*
X469900Y260350D03*
X254000Y850900D03*
X317500Y831850D03*
X590550Y546100D03*
X692150Y584200D03*
X412750Y209550D03*
X412750Y438150D03*
X342900Y349250D03*
X698500Y692150D03*
X698500Y647700D03*
X438150Y336550D03*
X603250Y342900D03*
X692150Y374650D03*
X539750Y546100D03*
X629920Y605790D03*
X565150Y664210D03*
X704850Y514350D03*
X565150Y527050D03*
X501650Y590550D03*
X476250Y508000D03*
X476250Y361950D03*
X311150Y228600D03*
X133350Y196850D03*
X546100Y622300D03*
X546100Y622300D03*
X552450Y565150D03*
D22*
X0Y0D02*
X749300Y0D01*
X749300Y996950D01*
X0Y996950D01*
X0Y0D01*
X731900Y177407D02*
X731823Y176625D01*
X731670Y175854D01*
X731441Y175102D01*
X731141Y174375D01*
X730770Y173682D01*
X730333Y173029D01*
X729835Y172421D01*
X729279Y171865D01*
X728671Y171367D01*
X728018Y170930D01*
X727325Y170559D01*
X726598Y170259D01*
X725846Y170030D01*
X725075Y169877D01*
X724293Y169800D01*
X723507Y169800D01*
X722725Y169877D01*
X721954Y170030D01*
X721202Y170259D01*
X720475Y170559D01*
X719782Y170930D01*
X719129Y171367D01*
X718521Y171865D01*
X717965Y172421D01*
X717467Y173029D01*
X717030Y173682D01*
X716659Y174375D01*
X716359Y175102D01*
X716130Y175854D01*
X715977Y176625D01*
X715900Y177407D01*
X715900Y178193D01*
X715977Y178975D01*
X716130Y179746D01*
X716359Y180498D01*
X716659Y181225D01*
X717030Y181918D01*
X717467Y182571D01*
X717965Y183179D01*
X718521Y183735D01*
X719129Y184233D01*
X719782Y184670D01*
X720475Y185041D01*
X721202Y185341D01*
X721954Y185570D01*
X722725Y185723D01*
X723507Y185800D01*
X724293Y185800D01*
X725075Y185723D01*
X725846Y185570D01*
X726598Y185341D01*
X727325Y185041D01*
X728018Y184670D01*
X728671Y184233D01*
X729279Y183735D01*
X729835Y183179D01*
X730333Y182571D01*
X730770Y181918D01*
X731141Y181225D01*
X731441Y180498D01*
X731670Y179746D01*
X731823Y178975D01*
X731900Y178193D01*
X731900Y177407D01*
X46100Y177407D02*
X46023Y176625D01*
X45870Y175854D01*
X45641Y175102D01*
X45341Y174375D01*
X44970Y173682D01*
X44533Y173029D01*
X44035Y172421D01*
X43479Y171865D01*
X42871Y171367D01*
X42218Y170930D01*
X41525Y170559D01*
X40798Y170259D01*
X40046Y170030D01*
X39275Y169877D01*
X38493Y169800D01*
X37707Y169800D01*
X36925Y169877D01*
X36154Y170030D01*
X35402Y170259D01*
X34675Y170559D01*
X33982Y170930D01*
X33329Y171367D01*
X32721Y171865D01*
X32165Y172421D01*
X31667Y173029D01*
X31230Y173682D01*
X30859Y174375D01*
X30559Y175102D01*
X30330Y175854D01*
X30177Y176625D01*
X30100Y177407D01*
X30100Y178193D01*
X30177Y178975D01*
X30330Y179746D01*
X30559Y180498D01*
X30859Y181225D01*
X31230Y181918D01*
X31667Y182571D01*
X32165Y183179D01*
X32721Y183735D01*
X33329Y184233D01*
X33982Y184670D01*
X34675Y185041D01*
X35402Y185341D01*
X36154Y185570D01*
X36925Y185723D01*
X37707Y185800D01*
X38493Y185800D01*
X39275Y185723D01*
X40046Y185570D01*
X40798Y185341D01*
X41525Y185041D01*
X42218Y184670D01*
X42871Y184233D01*
X43479Y183735D01*
X44035Y183179D01*
X44533Y182571D01*
X44970Y181918D01*
X45341Y181225D01*
X45641Y180498D01*
X45870Y179746D01*
X46023Y178975D01*
X46100Y178193D01*
X46100Y177407D01*
X46100Y837807D02*
X46023Y837025D01*
X45870Y836254D01*
X45641Y835502D01*
X45341Y834775D01*
X44970Y834082D01*
X44533Y833429D01*
X44035Y832821D01*
X43479Y832265D01*
X42871Y831767D01*
X42218Y831330D01*
X41525Y830959D01*
X40798Y830659D01*
X40046Y830430D01*
X39275Y830277D01*
X38493Y830200D01*
X37707Y830200D01*
X36925Y830277D01*
X36154Y830430D01*
X35402Y830659D01*
X34675Y830959D01*
X33982Y831330D01*
X33329Y831767D01*
X32721Y832265D01*
X32165Y832821D01*
X31667Y833429D01*
X31230Y834082D01*
X30859Y834775D01*
X30559Y835502D01*
X30330Y836254D01*
X30177Y837025D01*
X30100Y837807D01*
X30100Y838593D01*
X30177Y839375D01*
X30330Y840146D01*
X30559Y840898D01*
X30859Y841625D01*
X31230Y842318D01*
X31667Y842971D01*
X32165Y843579D01*
X32721Y844135D01*
X33329Y844633D01*
X33982Y845070D01*
X34675Y845441D01*
X35402Y845741D01*
X36154Y845970D01*
X36925Y846123D01*
X37707Y846200D01*
X38493Y846200D01*
X39275Y846123D01*
X40046Y845970D01*
X40798Y845741D01*
X41525Y845441D01*
X42218Y845070D01*
X42871Y844633D01*
X43479Y844135D01*
X44035Y843579D01*
X44533Y842971D01*
X44970Y842318D01*
X45341Y841625D01*
X45641Y840898D01*
X45870Y840146D01*
X46023Y839375D01*
X46100Y838593D01*
X46100Y837807D01*
X731900Y837807D02*
X731823Y837025D01*
X731670Y836254D01*
X731441Y835502D01*
X731141Y834775D01*
X730770Y834082D01*
X730333Y833429D01*
X729835Y832821D01*
X729279Y832265D01*
X728671Y831767D01*
X728018Y831330D01*
X727325Y830959D01*
X726598Y830659D01*
X725846Y830430D01*
X725075Y830277D01*
X724293Y830200D01*
X723507Y830200D01*
X722725Y830277D01*
X721954Y830430D01*
X721202Y830659D01*
X720475Y830959D01*
X719782Y831330D01*
X719129Y831767D01*
X718521Y832265D01*
X717965Y832821D01*
X717467Y833429D01*
X717030Y834082D01*
X716659Y834775D01*
X716359Y835502D01*
X716130Y836254D01*
X715977Y837025D01*
X715900Y837807D01*
X715900Y838593D01*
X715977Y839375D01*
X716130Y840146D01*
X716359Y840898D01*
X716659Y841625D01*
X717030Y842318D01*
X717467Y842971D01*
X717965Y843579D01*
X718521Y844135D01*
X719129Y844633D01*
X719782Y845070D01*
X720475Y845441D01*
X721202Y845741D01*
X721954Y845970D01*
X722725Y846123D01*
X723507Y846200D01*
X724293Y846200D01*
X725075Y846123D01*
X725846Y845970D01*
X726598Y845741D01*
X727325Y845441D01*
X728018Y845070D01*
X728671Y844633D01*
X729279Y844135D01*
X729835Y843579D01*
X730333Y842971D01*
X730770Y842318D01*
X731141Y841625D01*
X731441Y840898D01*
X731670Y840146D01*
X731823Y839375D01*
X731900Y838593D01*
X731900Y837807D01*
X54950Y939387D02*
X54885Y938565D01*
X54756Y937750D01*
X54564Y936948D01*
X54309Y936163D01*
X53993Y935401D01*
X53618Y934666D01*
X53187Y933962D01*
X52702Y933295D01*
X52166Y932667D01*
X51583Y932084D01*
X50956Y931548D01*
X50288Y931063D01*
X49584Y930632D01*
X48849Y930257D01*
X48087Y929941D01*
X47302Y929686D01*
X46500Y929494D01*
X45685Y929365D01*
X44863Y929300D01*
X44037Y929300D01*
X43215Y929365D01*
X42400Y929494D01*
X41598Y929686D01*
X40813Y929941D01*
X40051Y930257D01*
X39316Y930632D01*
X38612Y931063D01*
X37945Y931548D01*
X37317Y932084D01*
X36734Y932667D01*
X36198Y933295D01*
X35713Y933962D01*
X35282Y934666D01*
X34907Y935401D01*
X34591Y936163D01*
X34336Y936948D01*
X34144Y937750D01*
X34015Y938565D01*
X33950Y939387D01*
X33950Y940213D01*
X34015Y941035D01*
X34144Y941850D01*
X34336Y942652D01*
X34591Y943437D01*
X34907Y944199D01*
X35282Y944934D01*
X35713Y945638D01*
X36198Y946306D01*
X36734Y946933D01*
X37317Y947516D01*
X37945Y948052D01*
X38612Y948537D01*
X39316Y948968D01*
X40051Y949343D01*
X40813Y949659D01*
X41598Y949914D01*
X42400Y950106D01*
X43215Y950235D01*
X44037Y950300D01*
X44863Y950300D01*
X45685Y950235D01*
X46500Y950106D01*
X47302Y949914D01*
X48087Y949659D01*
X48849Y949343D01*
X49584Y948968D01*
X50288Y948537D01*
X50956Y948052D01*
X51583Y947516D01*
X52166Y946933D01*
X52702Y946306D01*
X53187Y945638D01*
X53618Y944934D01*
X53993Y944199D01*
X54309Y943437D01*
X54564Y942652D01*
X54756Y941850D01*
X54885Y941035D01*
X54950Y940213D01*
X54950Y939387D01*
X715350Y939387D02*
X715285Y938565D01*
X715156Y937750D01*
X714964Y936948D01*
X714709Y936163D01*
X714393Y935401D01*
X714018Y934666D01*
X713587Y933962D01*
X713102Y933295D01*
X712566Y932667D01*
X711983Y932084D01*
X711356Y931548D01*
X710688Y931063D01*
X709984Y930632D01*
X709249Y930257D01*
X708487Y929941D01*
X707702Y929686D01*
X706900Y929494D01*
X706085Y929365D01*
X705263Y929300D01*
X704437Y929300D01*
X703615Y929365D01*
X702800Y929494D01*
X701998Y929686D01*
X701213Y929941D01*
X700451Y930257D01*
X699716Y930632D01*
X699012Y931063D01*
X698345Y931548D01*
X697717Y932084D01*
X697134Y932667D01*
X696598Y933295D01*
X696113Y933962D01*
X695682Y934666D01*
X695307Y935401D01*
X694991Y936163D01*
X694736Y936948D01*
X694544Y937750D01*
X694415Y938565D01*
X694350Y939387D01*
X694350Y940213D01*
X694415Y941035D01*
X694544Y941850D01*
X694736Y942652D01*
X694991Y943437D01*
X695307Y944199D01*
X695682Y944934D01*
X696113Y945638D01*
X696598Y946306D01*
X697134Y946933D01*
X697717Y947516D01*
X698345Y948052D01*
X699012Y948537D01*
X699716Y948968D01*
X700451Y949343D01*
X701213Y949659D01*
X701998Y949914D01*
X702800Y950106D01*
X703615Y950235D01*
X704437Y950300D01*
X705263Y950300D01*
X706085Y950235D01*
X706900Y950106D01*
X707702Y949914D01*
X708487Y949659D01*
X709249Y949343D01*
X709984Y948968D01*
X710688Y948537D01*
X711356Y948052D01*
X711983Y947516D01*
X712566Y946933D01*
X713102Y946306D01*
X713587Y945638D01*
X714018Y944934D01*
X714393Y944199D01*
X714709Y943437D01*
X714964Y942652D01*
X715156Y941850D01*
X715285Y941035D01*
X715350Y940213D01*
X715350Y939387D01*
X54950Y50387D02*
X54885Y49565D01*
X54756Y48750D01*
X54564Y47948D01*
X54309Y47163D01*
X53993Y46401D01*
X53618Y45666D01*
X53187Y44962D01*
X52702Y44295D01*
X52166Y43667D01*
X51583Y43084D01*
X50956Y42548D01*
X50288Y42063D01*
X49584Y41632D01*
X48849Y41257D01*
X48087Y40941D01*
X47302Y40686D01*
X46500Y40494D01*
X45685Y40365D01*
X44863Y40300D01*
X44037Y40300D01*
X43215Y40365D01*
X42400Y40494D01*
X41598Y40686D01*
X40813Y40941D01*
X40051Y41257D01*
X39316Y41632D01*
X38612Y42063D01*
X37945Y42548D01*
X37317Y43084D01*
X36734Y43667D01*
X36198Y44295D01*
X35713Y44962D01*
X35282Y45666D01*
X34907Y46401D01*
X34591Y47163D01*
X34336Y47948D01*
X34144Y48750D01*
X34015Y49565D01*
X33950Y50387D01*
X33950Y51213D01*
X34015Y52035D01*
X34144Y52850D01*
X34336Y53652D01*
X34591Y54437D01*
X34907Y55199D01*
X35282Y55934D01*
X35713Y56638D01*
X36198Y57306D01*
X36734Y57933D01*
X37317Y58516D01*
X37945Y59052D01*
X38612Y59537D01*
X39316Y59968D01*
X40051Y60343D01*
X40813Y60659D01*
X41598Y60914D01*
X42400Y61106D01*
X43215Y61235D01*
X44037Y61300D01*
X44863Y61300D01*
X45685Y61235D01*
X46500Y61106D01*
X47302Y60914D01*
X48087Y60659D01*
X48849Y60343D01*
X49584Y59968D01*
X50288Y59537D01*
X50956Y59052D01*
X51583Y58516D01*
X52166Y57933D01*
X52702Y57306D01*
X53187Y56638D01*
X53618Y55934D01*
X53993Y55199D01*
X54309Y54437D01*
X54564Y53652D01*
X54756Y52850D01*
X54885Y52035D01*
X54950Y51213D01*
X54950Y50387D01*
X715350Y50387D02*
X715285Y49565D01*
X715156Y48750D01*
X714964Y47948D01*
X714709Y47163D01*
X714393Y46401D01*
X714018Y45666D01*
X713587Y44962D01*
X713102Y44295D01*
X712566Y43667D01*
X711983Y43084D01*
X711356Y42548D01*
X710688Y42063D01*
X709984Y41632D01*
X709249Y41257D01*
X708487Y40941D01*
X707702Y40686D01*
X706900Y40494D01*
X706085Y40365D01*
X705263Y40300D01*
X704437Y40300D01*
X703615Y40365D01*
X702800Y40494D01*
X701998Y40686D01*
X701213Y40941D01*
X700451Y41257D01*
X699716Y41632D01*
X699012Y42063D01*
X698345Y42548D01*
X697717Y43084D01*
X697134Y43667D01*
X696598Y44295D01*
X696113Y44962D01*
X695682Y45666D01*
X695307Y46401D01*
X694991Y47163D01*
X694736Y47948D01*
X694544Y48750D01*
X694415Y49565D01*
X694350Y50387D01*
X694350Y51213D01*
X694415Y52035D01*
X694544Y52850D01*
X694736Y53652D01*
X694991Y54437D01*
X695307Y55199D01*
X695682Y55934D01*
X696113Y56638D01*
X696598Y57306D01*
X697134Y57933D01*
X697717Y58516D01*
X698345Y59052D01*
X699012Y59537D01*
X699716Y59968D01*
X700451Y60343D01*
X701213Y60659D01*
X701998Y60914D01*
X702800Y61106D01*
X703615Y61235D01*
X704437Y61300D01*
X705263Y61300D01*
X706085Y61235D01*
X706900Y61106D01*
X707702Y60914D01*
X708487Y60659D01*
X709249Y60343D01*
X709984Y59968D01*
X710688Y59537D01*
X711356Y59052D01*
X711983Y58516D01*
X712566Y57933D01*
X713102Y57306D01*
X713587Y56638D01*
X714018Y55934D01*
X714393Y55199D01*
X714709Y54437D01*
X714964Y53652D01*
X715156Y52850D01*
X715285Y52035D01*
X715350Y51213D01*
X715350Y50387D01*
M02*
