G04 EAGLE Gerber RS-274X export*
G75*
%MOMM*%
%FSLAX34Y34*%
%LPD*%
%INSolderpaste Top*%
%IPPOS*%
%AMOC8*
5,1,8,0,0,1.08239X$1,22.5*%
G01*
%ADD10R,6.200000X5.400000*%
%ADD11R,1.600000X1.000000*%
%ADD12R,1.120000X1.800000*%
%ADD13R,1.800000X1.120000*%
%ADD14R,1.500000X1.500000*%
%ADD15R,1.000000X3.400000*%
%ADD16R,6.800000X9.600000*%
%ADD17R,1.600000X0.800000*%
%ADD18R,0.800000X1.600000*%
%ADD19R,0.600000X2.200000*%
%ADD20R,1.000000X2.000000*%
%ADD21R,0.550000X1.200000*%
%ADD22R,0.279400X1.270000*%
%ADD23R,2.540000X1.651000*%
%ADD24R,2.300000X0.900000*%
%ADD25C,0.254000*%


D10*
X127400Y444500D03*
D11*
X200400Y421700D03*
X200400Y467300D03*
D10*
X628250Y444500D03*
D11*
X555250Y467300D03*
X555250Y421700D03*
D12*
X395900Y584200D03*
X366100Y584200D03*
X395900Y552450D03*
X366100Y552450D03*
X395900Y520700D03*
X366100Y520700D03*
X192700Y647700D03*
X162900Y647700D03*
X192700Y615950D03*
X162900Y615950D03*
X192700Y584200D03*
X162900Y584200D03*
X586400Y588010D03*
X556600Y588010D03*
X613750Y589280D03*
X643550Y589280D03*
D13*
X679450Y410550D03*
X679450Y440350D03*
D12*
X435950Y190500D03*
X465750Y190500D03*
X211750Y342900D03*
X181950Y342900D03*
D13*
X184150Y205400D03*
X184150Y175600D03*
D14*
X50800Y468350D03*
X50800Y433350D03*
X704850Y433350D03*
X704850Y468350D03*
D15*
X25400Y613450D03*
X76200Y613450D03*
D16*
X50800Y714450D03*
D17*
X529100Y381000D03*
X563100Y381000D03*
D18*
X254000Y391650D03*
X254000Y357650D03*
D19*
X330200Y859350D03*
X342900Y859350D03*
X355600Y859350D03*
X368300Y859350D03*
X381000Y859350D03*
X393700Y859350D03*
X406400Y859350D03*
X419100Y859350D03*
X419100Y931350D03*
X406400Y931350D03*
X393700Y931350D03*
X381000Y931350D03*
X368300Y931350D03*
X355600Y931350D03*
X342900Y931350D03*
X330200Y931350D03*
D18*
X285750Y865650D03*
X285750Y899650D03*
X450850Y884700D03*
X450850Y918700D03*
D13*
X374650Y827700D03*
X374650Y797900D03*
D12*
X319700Y806450D03*
X289900Y806450D03*
X465750Y304800D03*
X435950Y304800D03*
X395900Y304800D03*
X366100Y304800D03*
D20*
X450850Y449300D03*
X450850Y477800D03*
D21*
X701650Y565450D03*
X692150Y565450D03*
X682650Y565450D03*
X682650Y539450D03*
X701650Y539450D03*
D13*
X527050Y569300D03*
X527050Y599100D03*
D12*
X541950Y642620D03*
X512150Y642620D03*
D19*
X412750Y407000D03*
X400050Y407000D03*
X387350Y407000D03*
X374650Y407000D03*
X374650Y355000D03*
X387350Y355000D03*
X400050Y355000D03*
X412750Y355000D03*
D12*
X689950Y609600D03*
X719750Y609600D03*
D13*
X508000Y503850D03*
X508000Y474050D03*
D12*
X461350Y336550D03*
X491150Y336550D03*
D22*
X635120Y650732D03*
X630040Y650732D03*
X624960Y650732D03*
X619880Y650732D03*
X619880Y621268D03*
X624960Y621268D03*
X630040Y621268D03*
X635120Y621268D03*
D23*
X335049Y154564D03*
X412145Y154564D03*
D24*
X602000Y381000D03*
X638000Y381000D03*
X602000Y508000D03*
X638000Y508000D03*
X155000Y508000D03*
X119000Y508000D03*
X157700Y381000D03*
X121700Y381000D03*
D25*
X0Y0D02*
X749300Y0D01*
X749300Y996950D01*
X0Y996950D01*
X0Y0D01*
X731900Y177407D02*
X731823Y176625D01*
X731670Y175854D01*
X731441Y175102D01*
X731141Y174375D01*
X730770Y173682D01*
X730333Y173029D01*
X729835Y172421D01*
X729279Y171865D01*
X728671Y171367D01*
X728018Y170930D01*
X727325Y170559D01*
X726598Y170259D01*
X725846Y170030D01*
X725075Y169877D01*
X724293Y169800D01*
X723507Y169800D01*
X722725Y169877D01*
X721954Y170030D01*
X721202Y170259D01*
X720475Y170559D01*
X719782Y170930D01*
X719129Y171367D01*
X718521Y171865D01*
X717965Y172421D01*
X717467Y173029D01*
X717030Y173682D01*
X716659Y174375D01*
X716359Y175102D01*
X716130Y175854D01*
X715977Y176625D01*
X715900Y177407D01*
X715900Y178193D01*
X715977Y178975D01*
X716130Y179746D01*
X716359Y180498D01*
X716659Y181225D01*
X717030Y181918D01*
X717467Y182571D01*
X717965Y183179D01*
X718521Y183735D01*
X719129Y184233D01*
X719782Y184670D01*
X720475Y185041D01*
X721202Y185341D01*
X721954Y185570D01*
X722725Y185723D01*
X723507Y185800D01*
X724293Y185800D01*
X725075Y185723D01*
X725846Y185570D01*
X726598Y185341D01*
X727325Y185041D01*
X728018Y184670D01*
X728671Y184233D01*
X729279Y183735D01*
X729835Y183179D01*
X730333Y182571D01*
X730770Y181918D01*
X731141Y181225D01*
X731441Y180498D01*
X731670Y179746D01*
X731823Y178975D01*
X731900Y178193D01*
X731900Y177407D01*
X46100Y177407D02*
X46023Y176625D01*
X45870Y175854D01*
X45641Y175102D01*
X45341Y174375D01*
X44970Y173682D01*
X44533Y173029D01*
X44035Y172421D01*
X43479Y171865D01*
X42871Y171367D01*
X42218Y170930D01*
X41525Y170559D01*
X40798Y170259D01*
X40046Y170030D01*
X39275Y169877D01*
X38493Y169800D01*
X37707Y169800D01*
X36925Y169877D01*
X36154Y170030D01*
X35402Y170259D01*
X34675Y170559D01*
X33982Y170930D01*
X33329Y171367D01*
X32721Y171865D01*
X32165Y172421D01*
X31667Y173029D01*
X31230Y173682D01*
X30859Y174375D01*
X30559Y175102D01*
X30330Y175854D01*
X30177Y176625D01*
X30100Y177407D01*
X30100Y178193D01*
X30177Y178975D01*
X30330Y179746D01*
X30559Y180498D01*
X30859Y181225D01*
X31230Y181918D01*
X31667Y182571D01*
X32165Y183179D01*
X32721Y183735D01*
X33329Y184233D01*
X33982Y184670D01*
X34675Y185041D01*
X35402Y185341D01*
X36154Y185570D01*
X36925Y185723D01*
X37707Y185800D01*
X38493Y185800D01*
X39275Y185723D01*
X40046Y185570D01*
X40798Y185341D01*
X41525Y185041D01*
X42218Y184670D01*
X42871Y184233D01*
X43479Y183735D01*
X44035Y183179D01*
X44533Y182571D01*
X44970Y181918D01*
X45341Y181225D01*
X45641Y180498D01*
X45870Y179746D01*
X46023Y178975D01*
X46100Y178193D01*
X46100Y177407D01*
X46100Y837807D02*
X46023Y837025D01*
X45870Y836254D01*
X45641Y835502D01*
X45341Y834775D01*
X44970Y834082D01*
X44533Y833429D01*
X44035Y832821D01*
X43479Y832265D01*
X42871Y831767D01*
X42218Y831330D01*
X41525Y830959D01*
X40798Y830659D01*
X40046Y830430D01*
X39275Y830277D01*
X38493Y830200D01*
X37707Y830200D01*
X36925Y830277D01*
X36154Y830430D01*
X35402Y830659D01*
X34675Y830959D01*
X33982Y831330D01*
X33329Y831767D01*
X32721Y832265D01*
X32165Y832821D01*
X31667Y833429D01*
X31230Y834082D01*
X30859Y834775D01*
X30559Y835502D01*
X30330Y836254D01*
X30177Y837025D01*
X30100Y837807D01*
X30100Y838593D01*
X30177Y839375D01*
X30330Y840146D01*
X30559Y840898D01*
X30859Y841625D01*
X31230Y842318D01*
X31667Y842971D01*
X32165Y843579D01*
X32721Y844135D01*
X33329Y844633D01*
X33982Y845070D01*
X34675Y845441D01*
X35402Y845741D01*
X36154Y845970D01*
X36925Y846123D01*
X37707Y846200D01*
X38493Y846200D01*
X39275Y846123D01*
X40046Y845970D01*
X40798Y845741D01*
X41525Y845441D01*
X42218Y845070D01*
X42871Y844633D01*
X43479Y844135D01*
X44035Y843579D01*
X44533Y842971D01*
X44970Y842318D01*
X45341Y841625D01*
X45641Y840898D01*
X45870Y840146D01*
X46023Y839375D01*
X46100Y838593D01*
X46100Y837807D01*
X731900Y837807D02*
X731823Y837025D01*
X731670Y836254D01*
X731441Y835502D01*
X731141Y834775D01*
X730770Y834082D01*
X730333Y833429D01*
X729835Y832821D01*
X729279Y832265D01*
X728671Y831767D01*
X728018Y831330D01*
X727325Y830959D01*
X726598Y830659D01*
X725846Y830430D01*
X725075Y830277D01*
X724293Y830200D01*
X723507Y830200D01*
X722725Y830277D01*
X721954Y830430D01*
X721202Y830659D01*
X720475Y830959D01*
X719782Y831330D01*
X719129Y831767D01*
X718521Y832265D01*
X717965Y832821D01*
X717467Y833429D01*
X717030Y834082D01*
X716659Y834775D01*
X716359Y835502D01*
X716130Y836254D01*
X715977Y837025D01*
X715900Y837807D01*
X715900Y838593D01*
X715977Y839375D01*
X716130Y840146D01*
X716359Y840898D01*
X716659Y841625D01*
X717030Y842318D01*
X717467Y842971D01*
X717965Y843579D01*
X718521Y844135D01*
X719129Y844633D01*
X719782Y845070D01*
X720475Y845441D01*
X721202Y845741D01*
X721954Y845970D01*
X722725Y846123D01*
X723507Y846200D01*
X724293Y846200D01*
X725075Y846123D01*
X725846Y845970D01*
X726598Y845741D01*
X727325Y845441D01*
X728018Y845070D01*
X728671Y844633D01*
X729279Y844135D01*
X729835Y843579D01*
X730333Y842971D01*
X730770Y842318D01*
X731141Y841625D01*
X731441Y840898D01*
X731670Y840146D01*
X731823Y839375D01*
X731900Y838593D01*
X731900Y837807D01*
X54950Y939387D02*
X54885Y938565D01*
X54756Y937750D01*
X54564Y936948D01*
X54309Y936163D01*
X53993Y935401D01*
X53618Y934666D01*
X53187Y933962D01*
X52702Y933295D01*
X52166Y932667D01*
X51583Y932084D01*
X50956Y931548D01*
X50288Y931063D01*
X49584Y930632D01*
X48849Y930257D01*
X48087Y929941D01*
X47302Y929686D01*
X46500Y929494D01*
X45685Y929365D01*
X44863Y929300D01*
X44037Y929300D01*
X43215Y929365D01*
X42400Y929494D01*
X41598Y929686D01*
X40813Y929941D01*
X40051Y930257D01*
X39316Y930632D01*
X38612Y931063D01*
X37945Y931548D01*
X37317Y932084D01*
X36734Y932667D01*
X36198Y933295D01*
X35713Y933962D01*
X35282Y934666D01*
X34907Y935401D01*
X34591Y936163D01*
X34336Y936948D01*
X34144Y937750D01*
X34015Y938565D01*
X33950Y939387D01*
X33950Y940213D01*
X34015Y941035D01*
X34144Y941850D01*
X34336Y942652D01*
X34591Y943437D01*
X34907Y944199D01*
X35282Y944934D01*
X35713Y945638D01*
X36198Y946306D01*
X36734Y946933D01*
X37317Y947516D01*
X37945Y948052D01*
X38612Y948537D01*
X39316Y948968D01*
X40051Y949343D01*
X40813Y949659D01*
X41598Y949914D01*
X42400Y950106D01*
X43215Y950235D01*
X44037Y950300D01*
X44863Y950300D01*
X45685Y950235D01*
X46500Y950106D01*
X47302Y949914D01*
X48087Y949659D01*
X48849Y949343D01*
X49584Y948968D01*
X50288Y948537D01*
X50956Y948052D01*
X51583Y947516D01*
X52166Y946933D01*
X52702Y946306D01*
X53187Y945638D01*
X53618Y944934D01*
X53993Y944199D01*
X54309Y943437D01*
X54564Y942652D01*
X54756Y941850D01*
X54885Y941035D01*
X54950Y940213D01*
X54950Y939387D01*
X715350Y939387D02*
X715285Y938565D01*
X715156Y937750D01*
X714964Y936948D01*
X714709Y936163D01*
X714393Y935401D01*
X714018Y934666D01*
X713587Y933962D01*
X713102Y933295D01*
X712566Y932667D01*
X711983Y932084D01*
X711356Y931548D01*
X710688Y931063D01*
X709984Y930632D01*
X709249Y930257D01*
X708487Y929941D01*
X707702Y929686D01*
X706900Y929494D01*
X706085Y929365D01*
X705263Y929300D01*
X704437Y929300D01*
X703615Y929365D01*
X702800Y929494D01*
X701998Y929686D01*
X701213Y929941D01*
X700451Y930257D01*
X699716Y930632D01*
X699012Y931063D01*
X698345Y931548D01*
X697717Y932084D01*
X697134Y932667D01*
X696598Y933295D01*
X696113Y933962D01*
X695682Y934666D01*
X695307Y935401D01*
X694991Y936163D01*
X694736Y936948D01*
X694544Y937750D01*
X694415Y938565D01*
X694350Y939387D01*
X694350Y940213D01*
X694415Y941035D01*
X694544Y941850D01*
X694736Y942652D01*
X694991Y943437D01*
X695307Y944199D01*
X695682Y944934D01*
X696113Y945638D01*
X696598Y946306D01*
X697134Y946933D01*
X697717Y947516D01*
X698345Y948052D01*
X699012Y948537D01*
X699716Y948968D01*
X700451Y949343D01*
X701213Y949659D01*
X701998Y949914D01*
X702800Y950106D01*
X703615Y950235D01*
X704437Y950300D01*
X705263Y950300D01*
X706085Y950235D01*
X706900Y950106D01*
X707702Y949914D01*
X708487Y949659D01*
X709249Y949343D01*
X709984Y948968D01*
X710688Y948537D01*
X711356Y948052D01*
X711983Y947516D01*
X712566Y946933D01*
X713102Y946306D01*
X713587Y945638D01*
X714018Y944934D01*
X714393Y944199D01*
X714709Y943437D01*
X714964Y942652D01*
X715156Y941850D01*
X715285Y941035D01*
X715350Y940213D01*
X715350Y939387D01*
X54950Y50387D02*
X54885Y49565D01*
X54756Y48750D01*
X54564Y47948D01*
X54309Y47163D01*
X53993Y46401D01*
X53618Y45666D01*
X53187Y44962D01*
X52702Y44295D01*
X52166Y43667D01*
X51583Y43084D01*
X50956Y42548D01*
X50288Y42063D01*
X49584Y41632D01*
X48849Y41257D01*
X48087Y40941D01*
X47302Y40686D01*
X46500Y40494D01*
X45685Y40365D01*
X44863Y40300D01*
X44037Y40300D01*
X43215Y40365D01*
X42400Y40494D01*
X41598Y40686D01*
X40813Y40941D01*
X40051Y41257D01*
X39316Y41632D01*
X38612Y42063D01*
X37945Y42548D01*
X37317Y43084D01*
X36734Y43667D01*
X36198Y44295D01*
X35713Y44962D01*
X35282Y45666D01*
X34907Y46401D01*
X34591Y47163D01*
X34336Y47948D01*
X34144Y48750D01*
X34015Y49565D01*
X33950Y50387D01*
X33950Y51213D01*
X34015Y52035D01*
X34144Y52850D01*
X34336Y53652D01*
X34591Y54437D01*
X34907Y55199D01*
X35282Y55934D01*
X35713Y56638D01*
X36198Y57306D01*
X36734Y57933D01*
X37317Y58516D01*
X37945Y59052D01*
X38612Y59537D01*
X39316Y59968D01*
X40051Y60343D01*
X40813Y60659D01*
X41598Y60914D01*
X42400Y61106D01*
X43215Y61235D01*
X44037Y61300D01*
X44863Y61300D01*
X45685Y61235D01*
X46500Y61106D01*
X47302Y60914D01*
X48087Y60659D01*
X48849Y60343D01*
X49584Y59968D01*
X50288Y59537D01*
X50956Y59052D01*
X51583Y58516D01*
X52166Y57933D01*
X52702Y57306D01*
X53187Y56638D01*
X53618Y55934D01*
X53993Y55199D01*
X54309Y54437D01*
X54564Y53652D01*
X54756Y52850D01*
X54885Y52035D01*
X54950Y51213D01*
X54950Y50387D01*
X715350Y50387D02*
X715285Y49565D01*
X715156Y48750D01*
X714964Y47948D01*
X714709Y47163D01*
X714393Y46401D01*
X714018Y45666D01*
X713587Y44962D01*
X713102Y44295D01*
X712566Y43667D01*
X711983Y43084D01*
X711356Y42548D01*
X710688Y42063D01*
X709984Y41632D01*
X709249Y41257D01*
X708487Y40941D01*
X707702Y40686D01*
X706900Y40494D01*
X706085Y40365D01*
X705263Y40300D01*
X704437Y40300D01*
X703615Y40365D01*
X702800Y40494D01*
X701998Y40686D01*
X701213Y40941D01*
X700451Y41257D01*
X699716Y41632D01*
X699012Y42063D01*
X698345Y42548D01*
X697717Y43084D01*
X697134Y43667D01*
X696598Y44295D01*
X696113Y44962D01*
X695682Y45666D01*
X695307Y46401D01*
X694991Y47163D01*
X694736Y47948D01*
X694544Y48750D01*
X694415Y49565D01*
X694350Y50387D01*
X694350Y51213D01*
X694415Y52035D01*
X694544Y52850D01*
X694736Y53652D01*
X694991Y54437D01*
X695307Y55199D01*
X695682Y55934D01*
X696113Y56638D01*
X696598Y57306D01*
X697134Y57933D01*
X697717Y58516D01*
X698345Y59052D01*
X699012Y59537D01*
X699716Y59968D01*
X700451Y60343D01*
X701213Y60659D01*
X701998Y60914D01*
X702800Y61106D01*
X703615Y61235D01*
X704437Y61300D01*
X705263Y61300D01*
X706085Y61235D01*
X706900Y61106D01*
X707702Y60914D01*
X708487Y60659D01*
X709249Y60343D01*
X709984Y59968D01*
X710688Y59537D01*
X711356Y59052D01*
X711983Y58516D01*
X712566Y57933D01*
X713102Y57306D01*
X713587Y56638D01*
X714018Y55934D01*
X714393Y55199D01*
X714709Y54437D01*
X714964Y53652D01*
X715156Y52850D01*
X715285Y52035D01*
X715350Y51213D01*
X715350Y50387D01*
M02*
